<?xml version="1.0" encoding="UTF-8"?>
<svg xmlns="http://www.w3.org/2000/svg" xmlns:xlink="http://www.w3.org/1999/xlink" width="202px" height="80px" viewBox="0 0 201 80" version="1.1">
<g id="surface1">
<path style=" stroke:none;fill-rule:nonzero;fill:rgb(0%,0%,0%);fill-opacity:1;" d="M 0 39.886719 L 0 79.773438 L 200.777344 79.773438 L 200.777344 0 L 0 0 Z M 159.273438 13.652344 L 166.285156 19.496094 L 166.566406 16.066406 L 166.847656 12.640625 L 169.03125 12.472656 C 170.265625 12.359375 171.835938 12.414062 172.566406 12.585938 C 173.800781 12.921875 173.855469 13.089844 173.855469 19.550781 L 173.855469 26.179688 L 177.839844 29.496094 C 182.269531 33.203125 183.222656 34.496094 182.269531 35.675781 C 181.257812 36.855469 178.902344 37.191406 177.558594 36.347656 C 176.941406 35.898438 171.21875 31.292969 164.882812 26.066406 C 158.546875 20.84375 152.488281 15.898438 151.421875 15.054688 L 149.460938 13.59375 L 135.71875 25.054688 C 128.148438 31.40625 121.417969 36.683594 120.691406 36.910156 C 119.960938 37.078125 118.726562 36.910156 117.996094 36.574219 C 115.699219 35.5625 116.539062 33.820312 121.417969 29.605469 C 133.308594 19.269531 146.601562 8.035156 147.890625 7.191406 C 149.851562 5.953125 150.414062 6.292969 159.273438 13.652344 Z M 18.730469 38.988281 C 22.265625 40.054688 23.554688 41.292969 23.554688 43.539062 C 23.554688 46.011719 21.871094 46.460938 19.238281 44.605469 C 16.882812 43.035156 13.234375 42.808594 11.328125 44.15625 C 10.375 44.832031 10.09375 45.503906 10.207031 46.796875 C 10.375 48.875 12.171875 49.945312 17.609375 51.460938 C 19.851562 52.023438 21.535156 52.921875 22.824219 54.214844 C 24.507812 55.898438 24.675781 56.40625 24.675781 59.214844 C 24.675781 63.144531 23.667969 65.226562 20.917969 66.964844 C 19.125 68.035156 18.058594 68.257812 14.019531 68.257812 C 9.984375 68.257812 8.859375 68.035156 6.730469 66.855469 C 4.429688 65.5625 4.207031 65.226562 4.039062 63.035156 C 3.871094 60.785156 3.925781 60.675781 5.328125 60.675781 C 6.167969 60.675781 7.460938 61.179688 8.246094 61.796875 C 12.507812 65.113281 19.066406 64.101562 19.066406 60.054688 C 19.066406 57.808594 17.835938 56.910156 13.066406 55.503906 C 9.925781 54.605469 8.1875 53.707031 6.617188 52.246094 C 4.65625 50.335938 4.488281 49.945312 4.488281 47.136719 C 4.488281 40.28125 10.878906 36.628906 18.730469 38.988281 Z M 178.902344 43.820312 L 178.902344 48.875 L 180.753906 47.753906 C 183.335938 46.179688 187.707031 46.234375 190.175781 47.921875 C 192.980469 49.773438 194.328125 52.863281 194.328125 57.585938 C 194.328125 60.730469 194.046875 62.023438 192.980469 63.875 C 190.402344 68.371094 184.457031 69.832031 180.472656 66.855469 C 178.902344 65.675781 178.902344 65.675781 178.902344 66.855469 C 178.902344 67.808594 178.566406 67.976562 176.378906 67.976562 L 173.855469 67.976562 L 173.855469 38.765625 L 178.902344 38.765625 Z M 127.867188 45.226562 L 127.867188 51.125 L 140.207031 51.125 L 140.207031 39.324219 L 145.816406 39.324219 L 145.816406 68.035156 L 143.179688 67.863281 L 140.488281 67.695312 L 140.488281 56.179688 L 127.867188 56.179688 L 127.867188 67.976562 L 122.820312 67.976562 L 122.820312 39.324219 L 127.867188 39.324219 Z M 112.164062 44.101562 L 112.164062 46.628906 L 117.210938 46.628906 L 117.210938 51.125 L 112.164062 51.125 L 112.164062 57.246094 C 112.164062 63.933594 112.222656 64.046875 115.585938 64.046875 C 117.210938 64.046875 117.269531 64.15625 117.101562 66.125 C 116.933594 68.203125 116.875 68.257812 114.410156 68.425781 C 111.378906 68.59375 108.296875 67.191406 107.285156 65.167969 C 106.835938 64.324219 106.558594 61.347656 106.558594 57.414062 L 106.558594 51.125 L 104.875 51.125 C 103.304688 51.125 103.191406 51.011719 103.191406 48.875 C 103.191406 46.742188 103.304688 46.628906 104.875 46.628906 C 106.5 46.628906 106.558594 46.515625 106.558594 44.101562 L 106.558594 41.574219 L 112.164062 41.574219 Z M 42.792969 46.855469 C 43.800781 47.246094 45.035156 48.089844 45.59375 48.707031 C 46.605469 49.832031 46.605469 49.832031 48.230469 48.316406 C 51.429688 45.335938 56.25 45.675781 59.449219 49.101562 C 60.792969 50.617188 60.851562 50.953125 61.019531 59.324219 L 61.1875 67.976562 L 56.195312 67.976562 L 55.96875 60.335938 C 55.800781 53.539062 55.691406 52.640625 54.738281 51.910156 C 53.054688 50.730469 50.136719 50.898438 48.792969 52.359375 C 47.78125 53.484375 47.671875 54.324219 47.671875 60.785156 L 47.671875 67.976562 L 42.0625 67.976562 L 42.0625 60.785156 C 42.0625 52.359375 41.558594 51.125 38.304688 51.125 C 36.957031 51.125 35.78125 51.574219 34.941406 52.359375 C 33.707031 53.484375 33.648438 53.988281 33.648438 60.785156 L 33.648438 67.976562 L 28.042969 67.976562 L 28.042969 46.628906 L 30.84375 46.628906 C 33.371094 46.628906 33.648438 46.742188 33.648438 47.863281 C 33.648438 48.988281 33.707031 48.988281 34.660156 48.144531 C 36.902344 46.125 39.929688 45.617188 42.792969 46.855469 Z M 78.910156 47.191406 C 82.945312 48.988281 83.5625 50.617188 83.5625 59.945312 L 83.5625 67.976562 L 81.09375 67.976562 C 78.964844 67.976562 78.570312 67.808594 78.402344 66.796875 L 78.234375 65.617188 L 76.609375 66.910156 C 74.476562 68.59375 70.441406 68.933594 67.859375 67.585938 C 65.335938 66.292969 64.382812 64.382812 64.71875 61.234375 C 65 57.976562 66.792969 56.40625 70.777344 55.953125 C 77.898438 55.054688 77.953125 55.054688 77.953125 53.652344 C 77.953125 50.449219 73.1875 49.550781 70.664062 52.246094 C 69.488281 53.539062 68.589844 53.933594 67.074219 53.933594 C 65.390625 53.933594 65.054688 53.707031 65.054688 52.808594 C 65.054688 47.527344 72.796875 44.382812 78.910156 47.191406 Z M 100.949219 48.539062 L 100.949219 51.066406 L 98.59375 51.40625 C 93.882812 52.136719 93.097656 53.59375 93.097656 61.742188 L 93.097656 67.976562 L 87.488281 67.976562 L 87.488281 46.574219 L 90.125 46.742188 C 92.425781 46.910156 92.816406 47.078125 93.097656 48.316406 C 93.378906 49.496094 93.488281 49.550781 93.828125 48.707031 C 94.273438 47.527344 97.246094 46.125 99.433594 46.066406 C 100.835938 46.066406 100.949219 46.234375 100.949219 48.539062 Z M 155.460938 54.269531 C 155.628906 61.515625 155.683594 61.964844 156.976562 62.976562 C 158.714844 64.4375 160.566406 64.324219 162.472656 62.695312 C 164.042969 61.347656 164.042969 61.234375 164.210938 53.988281 L 164.433594 46.628906 L 169.371094 46.628906 L 169.371094 67.976562 L 166.847656 67.976562 C 164.660156 67.976562 164.320312 67.808594 164.320312 66.796875 C 164.320312 65.675781 164.320312 65.675781 162.527344 66.910156 C 160.226562 68.539062 155.683594 68.707031 153.441406 67.191406 C 150.863281 65.503906 150.300781 63.257812 150.300781 54.496094 L 150.300781 46.628906 L 155.238281 46.628906 Z M 155.460938 54.269531 "/>
<path style=" stroke:none;fill-rule:nonzero;fill:rgb(0%,0%,0%);fill-opacity:1;" d="M 181.707031 51.292969 C 179.855469 52.246094 178.902344 54.269531 178.902344 57.472656 C 178.902344 60.394531 180.023438 63.144531 181.425781 63.707031 C 185.519531 65.28125 189 62.585938 189 57.808594 C 189 54.4375 187.933594 52.136719 185.914062 51.234375 C 184.0625 50.394531 183.445312 50.394531 181.707031 51.292969 Z M 181.707031 51.292969 "/>
<path style=" stroke:none;fill-rule:nonzero;fill:rgb(0%,0%,0%);fill-opacity:1;" d="M 74.308594 58.820312 C 70.664062 59.550781 69.375 60.675781 70.046875 62.527344 C 70.382812 63.484375 71.058594 63.820312 73.019531 63.933594 C 76.382812 64.15625 78.125 62.808594 77.84375 60.113281 L 77.675781 58.144531 Z M 74.308594 58.820312 "/>
</g>
</svg>
